
<svg width="103" height="103" viewBox="0 0 103 103" fill="none" xmlns="http://www.w3.org/2000/svg">
<path fill-rule="evenodd" clip-rule="evenodd" d="M47.7903 11.33C46.7997 10.587 46.7584 6.89304 46.8616 5.13891C46.8671 2.66227 50.0629 1.31617 52.2546 0.392991L52.2547 0.392948C52.4242 0.321571 52.5876 0.252721 52.7431 0.186073C54.91 -0.742584 57.3864 2.04339 57.3864 3.2816C57.3864 4.17405 57.8689 4.58407 58.6019 5.20709C58.8859 5.44846 59.2075 5.72181 59.5533 6.06757C60.5364 7.05069 59.9584 8.61926 59.6785 9.37876L59.6784 9.37883C59.6058 9.57586 59.5533 9.71843 59.5533 9.7822C59.5533 10.0917 59.5533 12.5682 59.8629 13.4968C60.0371 14.0195 60.9958 14.8364 61.9111 15.6162C62.622 16.222 63.3068 16.8055 63.5775 17.2115C63.847 17.6157 65.2894 17.668 66.8838 17.7258C68.9522 17.8009 71.2762 17.8852 71.6258 18.7592C72.2449 20.307 85.5557 24.6407 89.2703 24.3312C92.242 24.0835 96.9059 26.9108 98.8664 28.3553C100.311 29.284 103.076 31.5128 102.581 32.9986C102.16 34.2622 100.306 34.093 98.7738 33.9532C98.0538 33.8875 97.405 33.8283 97.0091 33.9273C96.0186 34.1749 95.1518 32.1732 94.8423 31.1413C92.1595 31.0381 86.1748 30.5841 83.6984 29.5935C81.222 28.603 73.9991 28.9744 70.6972 29.284C65.2284 38.261 54.3528 56.7103 54.6005 58.6915C54.91 61.1679 48.0999 75.7169 47.1712 76.336C46.4283 76.8312 45.8298 76.336 45.6234 76.0264C44.282 78.1933 41.5373 82.8366 41.2897 84.0748C40.9802 85.6225 34.17 94.9091 32.0031 95.8378C31.0462 96.2479 30.5722 96.9599 30.1813 97.5472C29.6871 98.2896 29.3256 98.8327 28.2885 98.3142C26.8027 97.5713 24.3675 98.4174 23.3357 98.9333L26.7407 93.0518C28.3917 89.6467 32.1889 82.2794 34.17 80.0506C36.6464 77.2646 36.6464 72.6213 34.7891 71.6927C33.1086 70.8524 34.7226 68.2382 35.733 66.6016C35.8393 66.4294 35.9389 66.2681 36.0273 66.1207C36.7702 64.8825 35.7178 61.8902 35.0987 60.5488C32.2095 61.787 26.2455 64.0777 25.5025 63.3348C24.7596 62.5918 22.9229 62.1997 22.0975 62.0965C19.8274 63.0252 14.4206 64.7587 10.9536 64.2634C7.48659 63.7681 7.03258 59.9297 7.23895 58.0724C5.52912 57.3396 5.74671 55.2576 5.91456 53.6515C5.95943 53.2222 6.00074 52.8269 6.00074 52.5004C6.00074 50.9527 8.78671 49.7145 10.3345 49.0953C11.8822 48.4762 13.7395 50.3336 13.7395 50.9527C13.7395 51.4479 15.1841 52.6036 15.9064 53.1195C21.1688 50.1272 31.8174 44.1425 32.3127 44.1425C32.6668 44.1425 33.9326 42.4205 35.3568 40.4831L35.3568 40.4831L35.3569 40.4829L35.357 40.4828L35.3571 40.4827C36.4225 39.0333 37.5765 37.4634 38.5037 36.4037C40.6706 33.9273 41.9088 26.1885 40.9802 25.2598C40.0515 24.3312 30.1458 25.8789 27.3599 26.8076C25.9893 27.2644 21.6222 27.3467 17.5753 27.4229H17.5753H17.5753H17.5753H17.5752C13.3959 27.5017 9.5581 27.574 9.71537 28.0458C9.88165 28.5446 9.51202 29.1328 9.08627 29.8102C8.71941 30.394 8.31088 31.044 8.16761 31.7604C7.91997 32.9986 6.82621 32.4827 6.31029 32.07C6.10391 32.1732 5.62922 32.4414 5.38158 32.6891C5.07203 32.9986 2.90516 32.9986 3.83382 28.0458C4.61251 23.8927 13.2266 22.1339 17.2659 21.3091C18.0438 21.1502 18.652 21.0261 19.0019 20.9261C19.8089 20.6955 21.99 20.4649 24.4737 20.2023H24.4737C28.6586 19.7599 33.7025 19.2267 34.4795 18.4497C35.1502 17.779 37.0016 17.1083 38.853 16.4376C40.4196 15.8701 41.9861 15.3025 42.8374 14.735C44.3233 13.7445 47.5839 13.9096 49.0285 14.1159C49.0285 13.4968 48.7808 12.0729 47.7903 11.33ZM8.78671 49.4049C11.2631 47.919 13.1204 48.9922 13.7395 49.7144C17.7638 48.7858 14.6681 45.3807 13.1204 45.0712C12.9141 45.0299 12.7474 45.0995 12.4675 45.2164C11.8265 45.4842 10.5921 45.9998 6.92933 45.9998C2.13281 45.9998 1.1939 48.3143 0.36204 50.365L0.361989 50.3651C0.281211 50.5642 0.201441 50.7609 0.119246 50.9527C-0.623679 52.6862 2.28611 52.7068 3.83387 52.5004C4.45298 52.0877 6.31029 50.8907 8.78671 49.4049ZM20.5497 102.648C19.5592 101.905 21.9943 100.068 23.3357 99.2429C26.3074 98.0047 28.2886 98.5206 28.9077 98.9334C29.2172 99.3461 30.0221 100.295 30.765 100.791C30.8587 100.853 30.9682 100.925 31.0878 101.004L31.0879 101.004C32.1527 101.703 34.0138 102.926 32.6223 102.648C32.0201 102.528 30.2464 102.641 28.231 102.771H28.2309C25.0664 102.974 21.3062 103.215 20.5497 102.648ZM13.7393 83.456C18.1843 83.456 21.7876 79.8526 21.7876 75.4077C21.7876 70.9627 18.1843 67.3593 13.7393 67.3593C9.29428 67.3593 5.69091 70.9627 5.69091 75.4077C5.69091 79.8526 9.29428 83.456 13.7393 83.456Z" fill="#5C6E99"/>
</svg>
